<?xml version="1.0" standalone="no"?>
<!DOCTYPE svg PUBLIC "-//W3C//DTD SVG 20010904//EN"
 "http://www.w3.org/TR/2001/REC-SVG-20010904/DTD/svg10.dtd">
<svg version="1.0" xmlns="http://www.w3.org/2000/svg"
 width="500.000000pt" height="583.000000pt" viewBox="0 0 500.000000 583.000000"
 preserveAspectRatio="xMidYMid meet">

<g transform="translate(0.000000,583.000000) scale(0.100000,-0.100000)"
fill="#000000" stroke="none">
<path d="M3153 5613 c-13 -2 -23 -9 -23 -14 0 -6 -8 -8 -17 -5 -10 3 -24 2
-32 -3 -11 -7 -9 -10 7 -15 12 -4 19 -13 16 -21 -3 -7 3 -16 13 -19 10 -3 1
-4 -19 -1 -22 2 -39 -1 -42 -8 -3 -9 -7 -9 -14 1 -5 7 -21 15 -37 18 -38 7
-47 13 -41 30 8 22 -28 17 -49 -6 -22 -25 -33 -26 -31 -3 1 24 -38 29 -69 9
-29 -19 -36 -20 -34 -3 1 6 1 18 0 25 -2 20 -38 -4 -47 -30 -7 -22 -7 -22 -14
-3 -7 17 -10 14 -25 -22 -18 -44 -35 -56 -35 -25 0 27 -59 -86 -65 -127 -10
-64 -28 -125 -42 -146 -17 -25 -17 -35 2 -35 15 0 19 11 15 39 -1 9 5 12 18 9
14 -4 23 1 31 19 6 13 15 22 20 18 5 -3 9 7 9 23 -1 16 4 37 11 48 8 13 11 14
10 4 -5 -50 0 -52 38 -21 42 35 49 37 56 18 3 -9 -2 -13 -15 -13 -12 1 -23 -5
-26 -13 -2 -8 0 -11 6 -8 5 4 12 -2 15 -13 3 -13 11 -18 21 -14 10 4 17 -2 22
-20 3 -14 12 -26 20 -26 7 0 18 -8 24 -17 10 -17 10 -16 9 2 -3 42 0 48 16 35
13 -11 15 -10 12 6 -1 11 -6 25 -10 32 -5 7 -3 12 7 12 8 0 17 -9 21 -20 5
-16 9 -18 25 -8 14 9 16 16 9 25 -6 7 -9 16 -6 20 3 4 -1 22 -8 38 -7 17 -14
24 -14 17 -1 -7 -5 -10 -11 -7 -6 4 -5 11 3 19 10 11 14 10 26 -6 11 -16 15
-17 22 -7 6 10 9 11 9 2 0 -7 6 -13 14 -13 8 0 16 -5 18 -12 2 -6 12 -12 21
-14 12 -2 17 5 17 22 0 15 4 23 10 19 6 -4 8 -15 5 -26 -9 -26 21 -37 43 -15
14 13 14 18 3 28 -12 11 -13 10 -7 -5 4 -13 2 -17 -6 -15 -7 3 -14 10 -14 16
-1 7 -2 17 -3 22 0 6 -7 10 -15 10 -8 0 -16 13 -18 29 -3 18 0 29 6 28 6 -1
10 11 9 26 -2 25 0 27 15 16 9 -8 19 -14 21 -16 2 -1 -6 -14 -18 -29 -25 -31
-27 -44 -6 -44 10 0 12 6 8 18 -6 15 -5 16 12 2 17 -14 18 -14 7 7 -11 19 -10
22 7 20 10 0 24 -10 31 -22 12 -19 12 -19 -5 -5 -17 14 -17 13 -10 -10 4 -14
13 -31 21 -39 12 -13 16 -12 32 2 10 9 24 17 31 17 22 0 91 43 91 57 0 7 -5
13 -12 13 -7 0 -6 5 4 13 9 6 18 19 21 27 4 12 6 12 6 -2 1 -9 -4 -20 -9 -23
-8 -5 -7 -11 1 -21 13 -16 33 -19 24 -4 -3 6 1 10 10 10 9 0 13 -4 10 -10 -3
-5 -1 -10 5 -10 7 0 9 7 6 16 -3 9 -6 18 -6 20 0 3 -4 2 -10 -1 -16 -10 -11 4
9 27 18 19 21 19 51 5 17 -9 37 -14 44 -11 8 3 18 -7 26 -25 13 -32 24 -39 35
-21 3 6 12 10 18 10 7 0 6 -4 -3 -10 -20 -12 -22 -56 -4 -71 16 -13 19 -39 4
-39 -5 0 -10 -4 -10 -9 0 -5 14 -8 30 -6 18 3 28 0 25 -5 -4 -6 -1 -10 5 -10
7 0 10 -7 6 -17 -5 -15 -4 -15 9 1 13 17 15 18 15 3 0 -9 2 -17 5 -17 8 0 115
29 123 33 4 3 25 1 47 -3 l40 -8 -43 -1 c-24 0 -65 -8 -93 -17 -40 -13 -49
-21 -49 -39 0 -13 -3 -32 -6 -42 -5 -14 -3 -13 10 4 9 12 13 28 10 37 -7 17 4
20 32 9 16 -6 16 -7 -2 -14 -17 -7 -17 -8 -1 -8 10 -1 17 -9 17 -21 0 -11 5
-20 11 -20 6 0 8 7 5 16 -3 8 -2 12 4 9 14 -9 12 9 -2 23 -7 7 -8 12 -4 12 9
0 41 -36 58 -65 10 -19 10 -19 -9 -2 -25 22 -30 21 -43 -3 -10 -19 -9 -20 13
-15 19 5 30 0 51 -25 14 -17 26 -26 26 -19 0 7 3 10 6 7 3 -4 1 -16 -6 -27 -7
-13 -7 -21 -1 -21 14 0 43 58 36 70 -3 5 1 7 9 4 13 -5 12 -10 -5 -37 -10 -18
-19 -35 -19 -38 0 -3 36 0 80 6 44 6 82 9 85 7 11 -11 4 -18 -17 -19 -67 -1
-78 -4 -78 -18 0 -18 16 -20 24 -2 2 6 4 1 3 -13 -1 -17 4 -25 18 -28 17 -3
18 -1 5 8 -13 10 -13 11 0 7 8 -2 14 -10 12 -17 -1 -6 3 -10 10 -8 23 8 46
-33 37 -64 -5 -18 -4 -30 4 -35 8 -4 3 -10 -13 -14 -22 -6 -20 -7 11 -8 26 -1
39 4 43 15 4 9 4 19 1 22 -3 3 -5 0 -5 -6 0 -7 -3 -12 -7 -12 -5 0 -8 11 -8
25 0 29 0 28 25 15 16 -8 23 -3 47 35 15 24 32 44 36 45 5 0 -7 -22 -27 -49
-40 -55 -43 -61 -20 -61 8 0 12 5 9 10 -3 6 1 10 10 10 14 0 14 -2 0 -24 -15
-23 -15 -24 12 -29 23 -4 34 1 65 34 20 21 40 39 44 39 5 0 -9 -17 -30 -39
l-38 -38 46 -23 c25 -12 55 -33 66 -47 10 -13 24 -22 29 -18 6 3 8 0 5 -9 -3
-9 2 -17 15 -21 12 -3 21 -11 21 -16 0 -13 -41 15 -68 46 -26 30 -37 31 -52 8
-10 -17 -10 -17 -20 0 -6 9 -16 17 -23 17 -7 0 -25 7 -42 16 l-30 15 24 -25
c14 -14 19 -26 12 -26 -7 0 -9 -5 -6 -11 5 -6 12 -4 21 8 14 17 15 17 9 -5 -6
-20 -4 -22 18 -17 19 5 28 2 37 -14 7 -14 7 -21 0 -21 -5 0 -10 -5 -10 -11 0
-6 9 -8 20 -4 11 4 20 2 20 -4 0 -6 -7 -11 -16 -11 -9 0 -12 -5 -8 -12 4 -7
-5 -1 -21 14 -24 24 -26 30 -14 45 13 15 12 15 -9 2 -14 -9 -21 -21 -18 -31 2
-10 0 -21 -5 -24 -5 -3 -9 -12 -9 -20 0 -9 5 -12 12 -8 7 5 9 2 5 -9 -5 -12 6
-20 51 -33 31 -9 62 -17 69 -17 7 0 11 -3 10 -7 -1 -4 20 -25 46 -48 27 -23
45 -42 41 -42 -4 0 0 -8 9 -17 8 -10 15 -22 14 -28 -1 -5 15 -14 36 -19 20 -5
37 -13 37 -17 0 -5 -8 -6 -17 -3 -15 5 -15 4 -3 -4 28 -21 41 6 15 32 -9 8
-16 18 -15 21 1 17 -1 19 -8 8 -6 -9 -11 -6 -20 8 -12 19 -11 20 6 15 24 -8
36 17 22 45 -10 18 -21 23 -48 20 -6 -1 -17 10 -22 24 -5 14 -17 28 -25 31 -8
4 -15 10 -15 16 0 5 18 -6 40 -23 22 -18 43 -29 47 -25 9 9 -10 41 -26 42 -24
3 -25 5 -8 15 23 13 22 34 -4 60 -19 19 -19 22 -4 33 15 11 14 14 -5 39 -16
20 -28 26 -44 22 -19 -6 -20 -5 -3 8 24 20 21 38 -13 71 -25 23 -33 26 -45 16
-9 -7 -18 -10 -22 -6 -3 3 -1 6 6 6 8 0 9 5 1 19 -13 25 -13 31 0 31 5 0 9 -5
7 -11 -3 -17 20 -22 26 -6 6 15 -26 57 -43 57 -5 0 -6 -8 -3 -17 6 -15 5 -16
-9 -3 -12 11 -13 18 -5 28 13 17 -6 31 -43 32 -24 1 -24 1 -6 15 23 17 17 36
-18 55 -22 11 -31 12 -47 2 -10 -7 -19 -9 -19 -4 0 4 9 13 20 20 11 6 17 18
14 25 -6 18 -56 45 -71 40 -15 -6 -17 13 -3 22 24 15 -12 60 -42 52 -13 -4
-18 0 -16 11 2 13 -4 17 -24 15 -28 -2 -37 10 -18 22 18 11 11 25 -17 36 -20
7 -33 7 -45 0 -14 -9 -16 -6 -15 17 2 23 -2 28 -26 30 -16 2 -35 -2 -43 -9
-19 -15 -18 -4 2 27 16 23 15 26 -2 45 -10 11 -26 18 -35 16 -11 -3 -19 2 -22
14 -4 16 -9 18 -32 9 -36 -14 -35 -14 -28 21 6 31 5 32 -25 27 -17 -2 -29 -1
-26 4 10 16 -17 7 -36 -12 l-21 -21 3 28 c2 21 -1 27 -12 24 -8 -2 -21 -4 -29
-4 -8 0 -16 -8 -18 -18 -3 -10 -11 -15 -18 -12 -8 2 -11 11 -8 19 7 18 -13 19
-24 1 -4 -8 -16 -16 -25 -20 -14 -5 -17 -1 -15 16 2 18 -3 22 -28 22 -24 0
-30 -4 -28 -20 1 -20 1 -20 -13 -1 -11 15 -11 22 -2 27 9 6 8 10 -5 15 -10 3
-28 -1 -43 -11 -14 -9 -31 -14 -37 -11 -9 3 -8 5 1 5 15 1 6 21 -9 21 -6 0
-22 -12 -36 -27 -20 -21 -24 -23 -19 -9 6 17 -9 38 -24 34 -3 0 -15 -3 -27 -5z
m-7 -60 c-7 -7 -26 7 -26 19 0 6 6 6 15 -2 9 -7 13 -15 11 -17z m184 22 c0 -2
-10 -9 -22 -15 -22 -11 -22 -10 -4 4 21 17 26 19 26 11z m-70 -9 c0 -2 -7 -6
-15 -10 -8 -3 -15 -1 -15 4 0 6 7 10 15 10 8 0 15 -2 15 -4z m-86 -31 c-4 -8
-11 -15 -16 -15 -6 0 -5 6 2 15 7 8 14 15 16 15 2 0 1 -7 -2 -15z m-51 -44 c3
9 6 10 6 2 2 -20 -21 -27 -31 -9 -5 9 -14 13 -20 10 -7 -4 -8 -2 -4 4 4 7 2
12 -4 12 -6 0 -8 5 -4 12 5 7 15 2 29 -16 16 -20 24 -24 28 -15z m-249 -25
c-3 -9 -10 -16 -15 -16 -5 0 -4 9 3 20 14 22 21 20 12 -4z m292 9 c-3 -20 -16
-31 -16 -13 0 13 8 28 16 28 1 0 1 -7 0 -15z m369 -25 c3 -5 1 -10 -4 -10 -6
0 -11 5 -11 10 0 6 2 10 4 10 3 0 8 -4 11 -10z m-554 -45 c7 -13 3 -12 -10 5
-11 14 -21 30 -21 35 0 11 14 -7 31 -40z m-131 25 c0 -5 -2 -10 -4 -10 -3 0
-8 5 -11 10 -3 6 -1 10 4 10 6 0 11 -4 11 -10z m280 -16 c0 -8 -4 -12 -10 -9
-5 3 -10 10 -10 16 0 5 5 9 10 9 6 0 10 -7 10 -16z m-330 2 c0 -3 -4 -8 -10
-11 -5 -3 -10 -1 -10 4 0 6 5 11 10 11 6 0 10 -2 10 -4z m788 -21 c-3 -3 -9 2
-12 12 -6 14 -5 15 5 6 7 -7 10 -15 7 -18z m-894 -40 c-4 -8 -11 -12 -17 -8
-8 5 -7 8 1 11 7 2 9 9 6 14 -4 7 -2 8 4 4 6 -4 9 -13 6 -21z m186 16 c0 -6
-4 -13 -10 -16 -5 -3 -10 1 -10 9 0 9 5 16 10 16 6 0 10 -4 10 -9z m915 -123
c5 -4 0 -6 -12 -6 -13 1 -19 7 -16 15 3 8 8 10 12 6 3 -4 10 -11 16 -15z m122
6 c-3 -3 -12 -4 -19 -1 -8 3 -5 6 6 6 11 1 17 -2 13 -5z m-42 -14 c-3 -5 -11
-10 -16 -10 -6 0 -7 5 -4 10 3 6 11 10 16 10 6 0 7 -4 4 -10z m-102 -50 c3
-11 2 -20 -3 -20 -4 0 -10 11 -12 25 -6 29 7 25 15 -5z m247 -90 c0 -13 -11
-13 -30 0 -12 8 -11 10 8 10 12 0 22 -4 22 -10z m-89 -27 c13 -16 12 -17 -3
-4 -17 13 -22 21 -14 21 2 0 10 -8 17 -17z m153 2 c11 -8 16 -15 10 -15 -5 0
-18 7 -28 15 -11 8 -16 15 -10 15 5 0 18 -7 28 -15z m96 -60 c0 -9 -55 4 -58
13 -2 8 5 9 27 1 17 -6 31 -12 31 -14z m-140 5 c0 -5 -4 -10 -10 -10 -5 0 -10
5 -10 10 0 6 5 10 10 10 6 0 10 -4 10 -10z m139 -322 c15 -25 8 -33 -16 -19
-10 6 -14 11 -9 11 6 0 2 6 -8 13 -16 12 -16 13 1 14 11 1 25 -8 32 -19z m91
-6 c-8 -3 -24 -12 -35 -21 -14 -11 -13 -8 4 11 13 15 29 24 34 21 7 -4 6 -8
-3 -11z m-5 -32 c3 -5 -1 -10 -10 -10 -9 0 -13 5 -10 10 3 6 8 10 10 10 2 0 7
-4 10 -10z m35 -14 c-6 -9 -6 -16 2 -24 9 -9 9 -12 0 -12 -13 0 -13 1 -17 37
-1 15 2 20 12 16 9 -4 10 -9 3 -17z m45 -46 c-3 -5 -12 -10 -18 -10 -7 0 -6 4
3 10 19 12 23 12 15 0z"/>
<path d="M2998 5593 c-22 -5 -23 -17 -3 -33 12 -10 15 -10 15 0 0 10 4 9 16
-1 14 -11 15 -10 12 11 -3 25 -12 30 -40 23z"/>
<path d="M3331 5524 c0 -11 3 -14 6 -6 3 7 2 16 -1 19 -3 4 -6 -2 -5 -13z"/>
<path d="M3436 5424 c-9 -22 3 -32 14 -14 12 19 12 30 1 30 -5 0 -12 -7 -15
-16z"/>
<path d="M3050 5420 c0 -5 7 -10 16 -10 8 0 12 5 9 10 -3 6 -10 10 -16 10 -5
0 -9 -4 -9 -10z"/>
<path d="M3427 5379 c7 -7 15 -10 18 -7 3 3 -2 9 -12 12 -14 6 -15 5 -6 -5z"/>
<path d="M3410 5360 c0 -5 5 -10 11 -10 5 0 7 5 4 10 -3 6 -8 10 -11 10 -2 0
-4 -4 -4 -10z"/>
<path d="M2990 5334 c0 -8 5 -12 10 -9 6 4 8 11 5 16 -9 14 -15 11 -15 -7z"/>
<path d="M3489 5333 c0 -5 -2 -16 -4 -25 -4 -20 29 -26 40 -8 3 6 -1 10 -9 10
-19 0 -21 16 -3 23 7 3 5 6 -5 6 -10 1 -18 -2 -19 -6z"/>
<path d="M2683 5306 c-9 -11 -8 -17 6 -30 24 -22 38 -20 18 2 -13 14 -14 21
-5 30 7 7 8 12 3 12 -6 -1 -15 -7 -22 -14z"/>
<path d="M3530 5278 c0 -7 5 -20 10 -28 8 -12 10 -11 10 7 0 12 6 24 13 26 6
3 2 6 -10 6 -13 1 -23 -5 -23 -11z"/>
<path d="M2360 5268 c1 -30 36 -55 78 -56 23 -1 42 2 42 8 0 16 -55 39 -78 33
-16 -4 -22 -1 -22 11 0 9 -4 16 -10 16 -5 0 -10 -6 -10 -12z"/>
<path d="M3476 5255 c4 -8 8 -15 10 -15 2 0 4 7 4 15 0 8 -4 15 -10 15 -5 0
-7 -7 -4 -15z"/>
<path d="M2326 5177 c3 -10 9 -15 12 -12 3 3 0 11 -7 18 -10 9 -11 8 -5 -6z"/>
<path d="M2280 5150 c0 -5 5 -10 11 -10 5 0 7 5 4 10 -3 6 -8 10 -11 10 -2 0
-4 -4 -4 -10z"/>
<path d="M3718 5143 c-4 -13 1 -19 14 -19 11 0 17 6 16 15 -4 22 -25 24 -30 4z"/>
<path d="M2220 5140 c0 -6 7 -13 15 -17 24 -9 27 1 5 15 -13 8 -20 8 -20 2z"/>
<path d="M2184 5129 c-4 -7 -3 -9 4 -5 5 3 13 0 15 -6 4 -9 6 -10 6 -1 1 17
-16 25 -25 12z"/>
<path d="M2316 5117 c3 -10 9 -15 12 -12 3 3 0 11 -7 18 -10 9 -11 8 -5 -6z"/>
<path d="M3705 5100 c-3 -5 -1 -10 4 -10 6 0 11 5 11 10 0 6 -2 10 -4 10 -3 0
-8 -4 -11 -10z"/>
<path d="M2187 5085 c-4 -8 3 -10 19 -7 29 5 30 8 5 15 -11 3 -22 -1 -24 -8z"/>
<path d="M2225 5060 c3 -5 14 -10 23 -10 15 0 15 2 2 10 -20 13 -33 13 -25 0z"/>
<path d="M2360 5060 c-9 -6 -10 -10 -3 -10 6 0 15 5 18 10 8 12 4 12 -15 0z"/>
<path d="M2400 5041 c0 -8 -3 -11 -7 -8 -3 4 -12 2 -20 -4 -11 -10 -11 -15 -1
-27 11 -13 10 -15 -9 -10 -26 7 -95 -7 -140 -27 -17 -8 -41 -15 -53 -15 -33 0
-60 -19 -60 -41 0 -16 -4 -19 -17 -14 -10 5 -26 7 -35 7 -66 -4 -70 -5 -57
-13 12 -7 12 -9 0 -9 -8 0 -12 -3 -9 -6 4 -3 20 2 37 10 41 22 44 21 37 -14
-3 -19 -2 -29 4 -25 17 11 11 -16 -11 -48 -15 -22 -8 -17 19 13 42 46 56 73
25 49 -16 -13 -17 -12 -4 3 7 10 17 15 22 13 4 -3 23 7 41 23 63 54 119 79
193 86 39 3 92 13 119 22 38 13 53 14 74 5 26 -11 26 -11 7 4 -31 25 -63 29
-80 11 -18 -17 -30 -21 -21 -7 7 11 -22 36 -31 27 -4 -4 -1 -11 7 -16 9 -6 10
-10 3 -10 -7 0 -17 8 -22 18 -8 12 -10 13 -11 3z m10 -31 c13 -9 13 -10 0 -10
-8 0 -22 5 -30 10 -13 9 -13 10 0 10 8 0 22 -5 30 -10z"/>
<path d="M2140 5022 c0 -4 10 -9 22 -9 18 -2 20 0 8 7 -18 12 -30 13 -30 2z"/>
<path d="M2305 5010 c3 -5 11 -10 16 -10 6 0 7 5 4 10 -3 6 -11 10 -16 10 -6
0 -7 -4 -4 -10z"/>
<path d="M3930 5010 c0 -5 5 -10 10 -10 6 0 10 5 10 10 0 6 -4 10 -10 10 -5 0
-10 -4 -10 -10z"/>
<path d="M2190 4990 c8 -5 22 -9 30 -9 10 0 8 3 -5 9 -27 12 -43 12 -25 0z"/>
<path d="M2060 4970 c18 -12 30 -13 30 -2 0 4 -10 9 -22 9 -18 2 -20 0 -8 -7z"/>
<path d="M2659 4965 c18 -8 36 -15 40 -15 13 1 -45 29 -59 29 -8 0 0 -6 19
-14z"/>
<path d="M1950 4961 c0 -6 4 -13 10 -16 6 -3 7 1 4 9 -7 18 -14 21 -14 7z"/>
<path d="M2040 4931 c-23 -4 -30 -8 -19 -13 19 -8 69 1 69 13 0 5 -3 8 -7 8
-5 -1 -24 -4 -43 -8z"/>
<path d="M2790 4915 c14 -8 32 -14 40 -14 8 0 0 6 -19 14 -42 19 -54 19 -21 0z"/>
<path d="M4030 4920 c0 -5 5 -10 10 -10 6 0 10 5 10 10 0 6 -4 10 -10 10 -5 0
-10 -4 -10 -10z"/>
<path d="M1956 4907 c3 -10 9 -15 12 -12 3 3 0 11 -7 18 -10 9 -11 8 -5 -6z"/>
<path d="M3878 4913 c7 -3 16 -2 19 1 4 3 -2 6 -13 5 -11 0 -14 -3 -6 -6z"/>
<path d="M2914 4875 c39 -13 72 -23 74 -21 5 6 -106 46 -126 46 -9 0 14 -11
52 -25z"/>
<path d="M4078 4883 c7 -3 16 -2 19 1 4 3 -2 6 -13 5 -11 0 -14 -3 -6 -6z"/>
<path d="M4110 4883 c0 -12 77 -53 84 -46 13 13 5 21 -34 37 -46 18 -50 19
-50 9z"/>
<path d="M1965 4870 c3 -5 8 -10 11 -10 2 0 4 5 4 10 0 6 -5 10 -11 10 -5 0
-7 -4 -4 -10z"/>
<path d="M3073 4810 c48 -26 62 -26 19 0 -18 11 -38 20 -45 20 -6 0 5 -9 26
-20z"/>
<path d="M4071 4784 c0 -11 3 -14 6 -6 3 7 2 16 -1 19 -3 4 -6 -2 -5 -13z"/>
<path d="M3165 4781 c6 -5 24 -13 40 -17 39 -9 30 0 -15 15 -19 6 -30 7 -25 2z"/>
<path d="M3250 4750 c8 -5 22 -9 30 -9 10 0 8 3 -5 9 -27 12 -43 12 -25 0z"/>
<path d="M2000 4710 c-6 -11 -8 -20 -6 -20 3 0 10 9 16 20 6 11 8 20 6 20 -3
0 -10 -9 -16 -20z"/>
<path d="M3470 4680 c8 -5 20 -10 25 -10 6 0 3 5 -5 10 -8 5 -19 10 -25 10 -5
0 -3 -5 5 -10z"/>
<path d="M1941 4618 c-32 -47 -49 -63 -68 -64 -21 -2 -24 1 -19 21 4 14 0 27
-9 35 -13 11 -14 8 -9 -17 5 -27 3 -32 -25 -41 -20 -7 -31 -18 -31 -30 0 -11
-7 -25 -15 -32 -8 -7 -12 -16 -9 -21 3 -5 -3 -6 -12 -2 -11 4 -13 8 -6 11 17
5 15 22 -3 22 -8 0 -15 5 -15 11 0 6 -7 3 -16 -6 -14 -13 -19 -14 -25 -3 -5 7
-9 8 -9 3 0 -6 15 -27 34 -46 42 -45 101 -126 148 -204 35 -58 161 -306 189
-372 11 -27 19 -33 44 -33 42 0 76 11 69 21 -3 5 -9 7 -14 4 -4 -3 -6 4 -3 15
3 11 1 20 -4 20 -12 0 -39 69 -35 89 2 9 1 13 -4 9 -4 -4 -13 -3 -21 3 -15 13
-18 33 -3 24 6 -3 10 -2 10 3 0 6 -12 13 -27 17 -22 6 -25 9 -11 14 12 4 14
11 9 20 -5 8 -14 10 -22 5 -12 -6 -12 -5 -1 8 14 17 1 34 -17 23 -6 -3 -9 11
-8 34 1 22 -2 39 -7 38 -5 -1 -14 12 -20 28 -6 17 -19 36 -28 43 -13 9 -15 19
-9 35 10 27 4 47 -15 47 -8 0 -11 6 -8 15 4 8 1 15 -6 15 -6 0 -8 5 -5 10 7
11 -15 70 -25 70 -19 0 2 55 46 120 59 87 67 100 61 100 -2 0 -23 -28 -46 -62z
m-65 -95 c-10 -10 -19 5 -10 18 6 11 8 11 12 0 2 -7 1 -15 -2 -18z m59 -193
c3 -5 1 -10 -4 -10 -6 0 -11 5 -11 10 0 6 2 10 4 10 3 0 8 -4 11 -10z"/>
<path d="M3511 4666 c2 -2 15 -9 29 -15 24 -11 24 -11 6 3 -16 13 -49 24 -35
12z"/>
<path d="M1748 4643 c6 -2 18 -2 25 0 6 3 1 5 -13 5 -14 0 -19 -2 -12 -5z"/>
<path d="M1716 4632 c-3 -6 1 -13 10 -16 8 -3 12 -11 9 -16 -5 -8 -11 -8 -20
0 -16 13 -20 7 -29 -42 -7 -38 8 -55 20 -23 4 8 10 12 15 9 13 -8 11 10 -2 23
-9 9 -7 10 10 6 16 -4 21 -1 21 13 -1 24 -26 58 -34 46z"/>
<path d="M4370 4620 c0 -5 5 -10 11 -10 5 0 7 5 4 10 -3 6 -8 10 -11 10 -2 0
-4 -4 -4 -10z"/>
<path d="M4230 4616 c0 -2 7 -7 16 -10 8 -3 12 -2 9 4 -6 10 -25 14 -25 6z"/>
<path d="M3710 4580 c8 -5 20 -10 25 -10 6 0 3 5 -5 10 -8 5 -19 10 -25 10 -5
0 -3 -5 5 -10z"/>
<path d="M1750 4550 c-8 -5 -12 -12 -9 -15 4 -3 12 1 19 10 14 17 11 19 -10 5z"/>
<path d="M4305 4540 c-4 -6 1 -7 11 -3 14 5 16 3 11 -11 -4 -10 -1 -19 9 -23
24 -9 29 5 9 27 -20 22 -31 25 -40 10z"/>
<path d="M3820 4530 c35 -24 54 -31 30 -11 -14 11 -29 21 -35 21 -5 0 -3 -5 5
-10z"/>
<path d="M4329 4463 c-13 -15 -12 -15 9 -4 23 12 28 21 13 21 -5 0 -15 -7 -22
-17z"/>
<path d="M3981 4447 c19 -15 79 -47 79 -43 0 8 -62 46 -74 46 -5 0 -7 -1 -5
-3z"/>
<path d="M2828 4413 c-12 -11 -37 -17 -90 -18 -87 -3 -88 -3 -88 -12 0 -16
150 -6 184 12 21 12 42 16 59 11 34 -8 35 -26 3 -26 -14 0 -28 -5 -31 -10 -7
-12 42 -3 60 10 18 14 198 2 214 -15 14 -13 13 -15 -9 -15 -26 0 -95 -22 -106
-33 -4 -4 -17 -7 -28 -7 -17 0 -18 -2 -6 -10 12 -7 11 -10 -5 -15 -11 -3 -39
-15 -63 -27 -23 -12 -45 -18 -49 -14 -3 3 -17 -1 -30 -9 -13 -9 -29 -13 -35
-9 -7 4 -8 3 -4 -4 4 -7 1 -12 -6 -12 -7 -1 -26 -19 -43 -40 -16 -21 -35 -39
-41 -40 -7 0 -15 -7 -18 -16 -5 -14 -4 -15 9 -4 23 19 18 -3 -10 -44 -22 -33
-23 -36 -6 -36 10 0 30 9 44 20 33 26 45 25 21 -2 -17 -19 -17 -21 -1 -15 9 4
17 2 17 -4 0 -7 7 -8 18 -4 75 33 156 53 173 45 10 -6 20 -6 23 -1 4 5 24 12
46 16 23 4 37 11 34 17 -3 5 -18 7 -33 4 l-26 -6 25 14 c31 16 120 27 120 14
0 -5 8 -7 18 -4 9 3 32 2 50 -3 20 -6 32 -6 32 0 0 5 -4 9 -10 9 -5 0 -10 8
-10 17 0 13 3 14 12 5 7 -7 31 -12 54 -12 24 0 46 -5 49 -11 4 -6 14 -8 22 -5
8 3 20 3 26 -1 6 -4 31 -8 56 -9 26 -1 57 -7 71 -13 l25 -10 -25 0 c-104 -2
-190 -8 -196 -14 -4 -4 10 -7 32 -8 35 0 93 -16 69 -19 -9 -1 102 -50 112 -50
2 0 1 5 -2 10 -10 17 12 11 26 -7 12 -15 12 -16 -1 -8 -10 5 -12 5 -5 -3 15
-16 84 -52 99 -52 8 0 16 -7 20 -15 3 -8 12 -12 19 -9 9 3 24 -7 37 -25 12
-17 26 -29 31 -25 6 4 6 11 -1 19 -22 27 30 3 61 -28 23 -23 27 -32 17 -38 -7
-5 -9 -9 -4 -9 5 0 3 -6 -3 -13 -8 -11 -5 -19 13 -36 14 -13 22 -29 20 -36 -3
-7 -1 -16 5 -20 6 -3 11 -14 11 -24 0 -9 11 -21 25 -27 22 -8 23 -11 10 -28
-8 -11 -18 -16 -22 -11 -5 4 -2 10 5 12 20 7 14 25 -7 18 -13 -4 -20 1 -25 17
-5 14 -9 18 -12 11 -3 -7 4 -25 15 -39 25 -32 26 -44 6 -44 -8 0 -15 -5 -15
-11 0 -5 -4 -8 -8 -5 -4 2 -8 -7 -7 -21 0 -16 7 -29 19 -33 14 -5 16 -9 7 -14
-7 -5 -20 -1 -29 8 -16 14 -19 13 -30 -4 -8 -14 -9 -21 0 -26 7 -4 8 -3 4 4
-4 7 -2 12 4 12 7 0 9 -7 6 -16 -3 -9 -6 -18 -6 -21 0 -3 -7 0 -15 7 -18 15
-20 -1 -3 -18 9 -9 8 -12 -5 -12 -19 0 -24 -26 -6 -32 6 -2 13 -15 14 -29 2
-14 10 -40 19 -57 18 -35 19 -42 9 -42 -5 0 -17 18 -27 41 -22 44 -56 71 -56
44 0 -8 -4 -15 -10 -15 -5 0 -10 5 -10 10 0 18 -17 10 -27 -13 -9 -19 -8 -23
8 -23 11 0 19 4 19 8 0 4 -5 8 -12 8 -6 0 -9 2 -6 5 3 3 12 3 21 -1 13 -5 14
-9 5 -24 -7 -10 -18 -16 -26 -12 -11 4 -13 1 -7 -8 6 -10 4 -12 -8 -7 -11 4
-18 -3 -26 -24 -5 -16 -13 -29 -17 -29 -3 0 -3 7 0 16 4 10 1 14 -6 11 -7 -2
-12 -12 -10 -22 3 -13 -1 -16 -12 -12 -14 5 -15 3 -6 -13 15 -27 13 -32 -10
-25 -14 5 -20 2 -20 -9 0 -9 -4 -16 -9 -16 -15 0 -23 18 -12 25 6 3 8 12 5 20
-5 11 -10 12 -24 2 -18 -10 -18 -13 -4 -29 16 -17 11 -43 -7 -33 -5 4 -4 -6 1
-21 12 -30 4 -47 -10 -24 -8 12 -10 12 -10 1 0 -8 -7 -11 -20 -8 -17 4 -20 2
-15 -13 3 -10 2 -21 -3 -24 -6 -3 -12 3 -15 14 -6 22 -29 28 -26 8 3 -25 -1
-38 -12 -38 -6 0 -8 7 -4 18 5 14 4 15 -7 4 -9 -9 -10 -17 -2 -30 6 -9 11 -34
12 -54 2 -32 0 -38 -18 -38 -11 0 -20 7 -20 15 0 8 -4 15 -10 15 -5 0 -6 -7
-3 -17 5 -12 3 -14 -8 -8 -11 7 -11 5 1 -10 8 -10 10 -16 3 -12 -7 4 -13 0
-16 -10 -3 -13 -5 -11 -7 7 -1 23 -2 23 -10 5 -7 -16 -9 -17 -9 -3 -1 9 -12
29 -26 44 -14 15 -23 34 -21 41 3 7 -1 13 -9 13 -21 0 -19 -23 5 -50 13 -15
20 -37 20 -66 0 -23 5 -44 10 -46 7 -2 6 -10 -2 -21 -9 -11 -20 -16 -31 -11
-19 7 -23 34 -5 34 6 0 9 3 6 6 -4 3 -19 -3 -34 -13 -16 -10 -26 -13 -22 -8 3
6 2 19 -3 30 -6 17 -8 17 -8 3 -1 -22 -2 -22 -35 -5 -14 8 -23 17 -19 21 8 7
-26 76 -37 76 -4 0 -15 -15 -25 -34 -18 -34 -62 -71 -52 -44 6 17 -10 48 -25
48 -7 0 -22 -10 -35 -22 -13 -12 -26 -18 -30 -13 -5 4 -2 10 4 12 9 3 2 15
-17 35 -24 23 -34 27 -44 19 -7 -6 -22 -8 -32 -4 -17 6 -17 5 -5 -10 8 -10 11
-21 7 -24 -4 -4 -10 -3 -14 2 -11 16 -32 16 -32 0 0 -18 -12 -19 -27 -4 -8 8
-19 6 -41 -5 -20 -11 -33 -12 -37 -6 -4 6 -15 8 -26 5 -10 -4 -19 -2 -19 3 0
11 -58 22 -77 15 -15 -6 -18 -33 -4 -33 5 0 12 6 14 13 4 7 6 6 6 -4 2 -28
-25 -29 -39 -3 -13 23 -50 34 -50 14 0 -5 -7 -10 -15 -10 -16 0 -20 -12 -8
-23 3 -4 12 -2 20 5 7 6 17 8 21 4 4 -4 -1 -14 -12 -21 -11 -8 -15 -19 -11
-27 5 -7 -2 -3 -14 10 -12 12 -26 20 -31 17 -5 -3 -11 -1 -15 5 -3 5 1 10 10
10 9 0 14 3 12 8 -6 9 -59 8 -74 -1 -13 -8 -45 2 -39 12 2 3 -6 14 -19 23 -22
17 -23 17 -35 -12 -7 -16 -9 -34 -5 -39 3 -6 -1 -11 -9 -11 -10 0 -13 6 -10
15 5 11 2 13 -11 8 -15 -5 -17 -2 -13 15 7 25 2 28 -15 10 -17 -18 -18 -48 -1
-41 8 3 14 0 14 -6 0 -12 -12 -15 -45 -11 -16 2 -17 0 -6 -14 15 -18 9 -32 -9
-21 -7 4 -9 18 -6 31 5 17 2 26 -9 30 -8 4 -15 12 -15 20 0 8 -6 14 -14 14 -8
0 -21 3 -29 6 -8 3 -21 -2 -30 -10 -20 -20 -31 -20 -23 -1 3 10 -1 18 -12 22
-9 4 -22 14 -29 22 -13 18 -23 12 -27 -15 -2 -10 -8 -20 -14 -22 -14 -4 -16
34 -3 42 5 3 7 15 4 26 -4 16 -9 18 -19 9 -7 -6 -23 -8 -35 -4 -17 6 -21 4
-16 -8 10 -25 -42 -18 -60 9 -12 19 -22 23 -50 20 -29 -4 -35 -1 -43 20 -12
31 -24 31 -18 0 3 -16 1 -23 -8 -19 -6 2 -15 0 -19 -6 -3 -6 -13 -11 -21 -11
-8 0 -13 4 -10 8 9 14 -10 33 -35 35 -13 0 -27 6 -31 12 -4 5 -16 10 -27 10
-12 0 -20 3 -18 6 3 8 -24 39 -34 39 -5 0 -6 -8 -2 -17 3 -10 -15 2 -40 27
-27 27 -46 54 -47 68 0 13 -6 22 -16 22 -9 0 -12 -5 -8 -12 5 -8 2 -9 -10 -5
-12 5 -19 0 -25 -16 -5 -12 -7 -24 -5 -27 1 -4 -6 -12 -18 -19 -20 -12 -20
-12 -2 18 15 25 15 32 5 45 -11 13 -11 16 -1 16 9 0 9 4 -1 17 -12 15 -12 16
5 10 16 -6 17 -5 6 8 -7 8 -19 15 -26 15 -9 0 -12 10 -10 29 2 22 0 28 -11 24
-8 -3 -12 -12 -9 -19 3 -8 1 -14 -3 -14 -5 0 -7 -9 -4 -20 3 -11 0 -27 -7 -35
-7 -8 -10 -24 -7 -34 3 -11 -1 -22 -9 -25 -10 -4 -13 3 -10 24 4 34 -1 37 -21
13 -12 -15 -14 -16 -10 -2 3 9 0 22 -6 28 -15 15 0 26 17 12 11 -10 19 -10 33
-1 16 10 16 11 1 6 -10 -3 -18 -1 -18 4 0 6 5 10 10 10 6 0 10 14 10 30 0 17
5 30 12 30 6 0 8 3 4 7 -10 10 -53 -40 -48 -56 3 -9 0 -12 -10 -8 -9 3 -20 1
-25 -4 -6 -6 -10 -4 -10 5 0 8 4 13 8 10 5 -3 15 12 24 32 17 41 19 58 4 32
-15 -26 -27 -22 -21 7 3 16 0 25 -8 25 -7 0 -10 6 -7 13 2 6 1 21 -4 32 -7 19
-8 19 -8 -2 -1 -12 -4 -28 -7 -37 -4 -11 -1 -16 11 -16 13 0 15 -3 6 -13 -6
-8 -8 -17 -4 -20 3 -4 -3 -7 -15 -7 -24 0 -30 15 -9 24 10 5 10 7 0 12 -7 3
-13 12 -13 20 0 9 4 13 8 10 5 -3 9 8 9 24 0 37 -25 48 -33 15 -7 -28 -19 -32
-27 -11 -3 8 1 17 9 20 8 3 19 16 24 28 5 13 9 17 9 11 1 -7 9 -13 19 -13 13
0 10 5 -10 18 -23 15 -25 19 -12 27 8 6 16 18 18 27 1 10 5 21 9 24 14 14 7
26 -8 14 -8 -7 -15 -18 -15 -25 0 -17 -27 -38 -34 -27 -3 6 1 12 9 16 8 3 13
11 10 18 -2 7 11 24 30 38 19 14 35 28 35 33 0 11 -52 -23 -72 -47 -12 -15
-18 -17 -18 -7 0 10 -8 7 -25 -9 -17 -16 -25 -19 -25 -9 0 19 47 62 60 54 5
-3 10 -1 10 4 0 6 8 11 17 11 9 0 13 3 10 7 -4 3 3 18 15 32 13 14 16 20 8 14
-17 -16 -50 -17 -50 -3 0 15 37 27 76 24 18 -2 36 1 39 6 4 6 -1 7 -11 3 -12
-5 -15 -3 -9 6 6 10 3 11 -14 2 -12 -7 -26 -9 -31 -6 -12 7 -14 26 -2 23 19
-5 53 15 48 28 -3 8 1 14 10 14 8 0 12 -4 9 -10 -3 -5 0 -7 9 -4 12 5 13 9 3
19 -10 10 -21 9 -62 -7 -81 -33 -82 -33 -68 -18 7 7 47 31 90 52 43 21 67 35
53 32 -21 -5 -63 -22 -104 -42 -5 -3 -6 0 -2 7 10 15 3 14 -39 -6 -19 -9 -35
-21 -35 -26 0 -5 -7 -6 -16 -3 -9 4 -37 -5 -62 -19 -37 -21 -42 -22 -28 -6 10
10 31 25 47 31 16 7 28 15 25 17 -8 8 -91 -39 -138 -78 -26 -22 -53 -37 -61
-33 -9 3 -16 -3 -20 -16 -3 -12 -10 -19 -15 -16 -5 3 -16 -2 -23 -12 -13 -15
-12 -16 3 -4 15 12 17 11 16 -10 -2 -26 -15 -48 -31 -48 -5 0 -2 9 8 20 10 11
13 20 8 20 -18 0 -113 -114 -102 -121 7 -4 4 -12 -8 -20 -10 -8 -32 -36 -47
-64 -34 -60 -105 -264 -112 -320 -2 -22 -9 -58 -14 -80 -16 -72 -22 -119 -25
-210 -2 -49 -6 -105 -10 -125 -4 -23 -3 -30 3 -21 7 9 11 1 14 -30 5 -51 0
-79 -14 -79 -6 0 -8 7 -4 15 6 17 -8 64 -15 49 -3 -5 -3 -42 -1 -82 3 -62 6
-71 18 -61 12 10 14 4 15 -37 1 -67 6 -93 29 -136 10 -20 19 -45 20 -55 2 -51
13 -119 21 -127 5 -6 9 -21 9 -34 0 -13 18 -57 39 -98 22 -41 34 -74 29 -74
-6 0 -5 -8 4 -17 8 -10 20 -37 28 -60 10 -32 19 -43 34 -44 12 0 15 -3 9 -6
-15 -6 -17 -33 -3 -33 6 0 10 -5 10 -10 0 -6 11 -21 24 -34 14 -12 26 -29 28
-37 2 -7 6 -16 9 -19 3 -3 20 -35 37 -71 17 -37 43 -76 57 -87 15 -12 24 -25
21 -30 -3 -5 10 -30 30 -56 19 -25 32 -46 28 -46 -3 0 1 -11 10 -25 34 -52 56
-91 67 -117 6 -14 17 -29 25 -32 9 -3 13 -10 9 -15 -6 -10 25 -81 35 -81 4 0
7 -6 7 -13 0 -8 14 -35 32 -60 18 -26 30 -51 27 -56 -10 -16 72 -97 153 -151
44 -29 78 -57 75 -62 -4 -5 -9 -7 -12 -4 -3 3 -12 0 -20 -7 -13 -10 -14 -9 -7
3 5 9 -1 7 -15 -5 -15 -13 -21 -15 -16 -5 4 8 0 6 -8 -4 -12 -15 -16 -16 -16
-5 0 12 -2 12 -10 -1 -5 -8 -10 -11 -10 -6 0 5 -7 3 -15 -4 -8 -7 -15 -9 -15
-4 -1 5 -9 -1 -19 -13 -10 -12 -21 -20 -24 -17 -3 3 -3 -3 0 -15 3 -11 9 -18
14 -15 5 3 7 9 4 13 -2 5 2 17 10 27 8 10 15 14 15 7 0 -6 -5 -15 -10 -18 -6
-4 -8 -10 -5 -15 3 -5 1 -11 -5 -15 -6 -4 -8 -10 -5 -15 3 -5 0 -12 -6 -16 -7
-4 -9 -3 -6 2 3 5 -4 21 -14 34 -16 20 -18 21 -10 4 7 -15 7 -25 -2 -34 -8 -8
-8 -11 -1 -7 7 4 17 0 24 -9 11 -12 15 -12 21 -2 7 10 9 9 9 -4 0 -10 5 -18
11 -18 5 0 7 5 3 12 -4 7 -3 8 5 4 9 -6 9 -11 -1 -24 -12 -14 -10 -14 11 -3
19 11 22 11 16 0 -6 -9 -3 -11 8 -6 9 3 19 1 23 -5 5 -7 2 -8 -6 -3 -9 6 -11
4 -6 -4 5 -7 11 -10 14 -7 3 3 12 0 20 -7 13 -10 14 -9 7 3 -5 9 0 7 14 -4 25
-22 55 -31 44 -13 -3 7 3 4 14 -6 11 -9 23 -14 26 -11 4 4 14 1 24 -7 14 -12
16 -12 8 0 -6 11 -5 12 6 5 8 -4 19 -9 24 -10 6 -1 24 -5 40 -9 17 -3 44 -8
60 -11 17 -3 41 -7 55 -10 14 -3 45 -7 70 -10 53 -7 85 -12 85 -14 0 -1 25 -3
55 -5 74 -6 155 -13 155 -15 0 -1 36 -3 80 -4 44 -2 80 -4 80 -5 0 -5 540 -2
605 4 41 3 107 8 145 10 39 2 70 5 70 5 0 3 43 10 90 14 28 3 50 6 50 7 0 1
14 2 30 3 17 1 36 6 43 10 8 4 16 5 19 2 3 -3 12 -1 20 6 7 6 16 8 20 4 3 -3
15 2 26 11 11 10 18 13 14 7 -3 -6 0 -11 8 -11 8 0 12 4 10 8 -3 4 2 10 11 13
10 4 13 2 9 -7 -4 -6 1 -3 9 7 11 14 16 15 16 6 0 -9 4 -8 13 5 9 11 19 15 27
10 10 -6 12 -4 6 10 -5 15 -4 16 9 5 14 -12 15 -10 11 13 -3 17 0 26 7 24 7
-1 11 4 9 11 -1 8 2 11 8 7 5 -3 10 1 10 9 0 9 -5 15 -11 13 -6 -1 -13 6 -14
16 -2 9 1 15 6 11 5 -3 6 -10 3 -16 -4 -7 -2 -8 5 -4 19 12 25 -23 7 -43 -10
-11 -14 -21 -9 -23 4 -3 1 -3 -7 -1 -12 3 -13 2 -2 -9 10 -10 17 -8 35 11 12
13 17 21 10 17 -7 -4 -10 5 -8 29 2 22 -1 34 -8 32 -7 -1 -11 4 -9 11 1 8 -2
11 -7 8 -5 -3 -14 1 -21 9 -7 8 -16 13 -20 10 -4 -3 -13 2 -20 10 -6 7 -19 11
-27 8 -35 -14 0 16 64 56 103 62 157 121 138 151 -4 7 1 14 15 17 16 4 20 11
16 26 -5 21 20 60 86 132 21 22 41 49 44 60 10 32 45 76 55 70 5 -4 9 -1 9 4
0 6 -5 11 -12 11 -6 0 2 12 19 28 35 31 59 72 43 72 -5 0 -10 5 -10 10 0 6 6
10 13 10 11 0 46 65 62 115 5 16 4 18 -6 8 -17 -17 -26 -16 -32 1 -4 10 -1 13
8 10 7 -3 16 3 20 15 7 23 21 28 28 9 2 -7 10 1 17 17 30 71 36 82 68 112 19
18 31 37 27 42 -3 6 3 21 14 33 23 24 28 45 8 32 -7 -5 -4 -1 6 8 11 10 23 15
28 12 5 -3 9 -2 8 3 -3 9 5 31 33 95 12 26 21 62 21 78 0 19 3 26 8 18 6 -9
11 -5 17 13 6 14 17 31 26 38 9 7 16 23 16 34 0 11 12 54 26 95 14 41 23 81
20 89 -4 8 -3 20 1 26 4 7 9 21 10 31 2 11 10 27 18 36 17 19 30 180 15 180
-12 0 20 63 37 73 7 4 13 15 13 23 0 9 -5 12 -11 8 -7 -4 -6 2 2 17 6 13 14
51 16 84 5 66 5 63 0 184 -2 47 -1 98 3 115 3 17 2 58 -3 91 -4 33 -10 72 -12
87 -2 15 -6 31 -9 36 -3 5 -8 23 -11 41 -3 18 -14 49 -24 70 -10 20 -33 77
-51 126 -39 110 -96 226 -127 259 -13 14 -23 30 -23 36 0 5 -6 9 -12 7 -7 -1
-12 3 -11 10 2 8 -4 10 -14 6 -13 -5 -15 -2 -10 16 3 12 0 35 -6 50 -30 69
-237 269 -371 358 -112 74 -311 171 -324 158 -3 -2 8 -10 24 -16 23 -10 25
-13 11 -16 -23 -6 -74 26 -58 36 6 4 -11 13 -40 19 -60 14 -84 15 -50 1 29
-11 21 -24 -8 -14 -12 3 -21 13 -21 21 0 8 -10 14 -22 14 -19 0 -20 -2 -8 -10
9 -6 10 -10 3 -10 -7 0 -16 7 -20 15 -5 9 -31 17 -67 20 -34 3 -55 2 -52 -4 3
-5 -12 -11 -34 -13 -22 -2 -40 0 -40 4 0 4 -21 5 -47 2 -50 -7 -53 10 -3 19
14 2 -16 5 -65 6 -72 1 -94 -2 -107 -16z m397 -32 c-3 -6 -11 -11 -17 -11 -6
0 -6 6 2 15 14 17 26 13 15 -4z m145 -41 c0 -5 -2 -10 -4 -10 -3 0 -8 5 -11
10 -3 6 -1 10 4 10 6 0 11 -4 11 -10z m-133 -6 c-3 -3 -12 -4 -19 -1 -8 3 -5
6 6 6 11 1 17 -2 13 -5z m-50 -40 c2 -6 -6 -15 -19 -18 -14 -5 -18 -9 -10 -13
6 -2 12 -11 12 -18 0 -10 -10 -12 -37 -8 -21 3 -39 9 -41 13 -1 3 -32 5 -68 3
-36 -1 -63 1 -60 6 3 5 38 9 78 9 63 1 75 4 87 22 15 22 51 24 58 4z m53 -4
c0 -5 -7 -10 -15 -10 -8 0 -15 5 -15 10 0 6 7 10 15 10 8 0 15 -4 15 -10z
m300 -16 c0 -18 -4 -18 -24 5 -17 19 -17 19 3 14 12 -3 21 -12 21 -19z m-275
6 c3 -5 1 -10 -4 -10 -6 0 -11 5 -11 10 0 6 2 10 4 10 3 0 8 -4 11 -10z m248
-27 c-7 -2 -19 -2 -25 0 -7 3 -2 5 12 5 14 0 19 -2 13 -5z m-522 -44 c-24 -11
-49 -18 -55 -16 -14 5 53 35 79 35 12 1 2 -8 -24 -19z m382 -3 c15 -2 33 -8
40 -15 9 -10 8 -12 -8 -10 -11 2 -25 0 -31 -4 -15 -9 -114 9 -128 23 -7 7 2 9
27 6 26 -4 36 -2 31 6 -5 8 0 9 17 4 13 -4 37 -9 52 -10z m-482 -10 c-6 -7
-24 -16 -40 -19 -16 -3 -42 -9 -57 -12 -16 -3 -2 5 31 19 72 29 81 30 66 12z
m179 4 c0 -5 -6 -10 -14 -10 -8 0 -21 -7 -30 -15 -16 -16 -49 -10 -43 8 6 20
87 35 87 17z m55 -10 c7 -12 -2 -12 -30 0 -19 8 -19 9 2 9 12 1 25 -3 28 -9z
m470 0 c3 -5 -3 -10 -14 -10 -11 0 -23 5 -26 10 -3 6 3 10 14 10 11 0 23 -4
26 -10z m-406 -34 c-9 -9 -21 -11 -34 -6 -19 8 -19 9 2 9 12 1 25 6 28 12 4 6
10 8 13 4 3 -3 -1 -12 -9 -19z m411 0 c0 -9 -40 -13 -46 -5 -3 5 6 9 20 9 14
0 26 -2 26 -4z m80 -26 c0 -5 -2 -10 -4 -10 -3 0 -8 5 -11 10 -3 6 -1 10 4 10
6 0 11 -4 11 -10z m90 -11 c0 -6 -4 -7 -10 -4 -5 3 -10 11 -10 16 0 6 5 7 10
4 6 -3 10 -11 10 -16z m-990 -11 c-58 -52 -73 -60 -35 -20 21 23 44 42 49 42
6 0 -1 -10 -14 -22z m95 -22 c-11 -7 -31 -17 -45 -20 -23 -7 -23 -6 5 13 17
12 37 21 45 21 10 0 9 -4 -5 -14z m625 -26 c0 -5 -2 -10 -4 -10 -3 0 -8 5 -11
10 -3 6 -1 10 4 10 6 0 11 -4 11 -10z m150 -22 c0 -6 -6 -5 -15 2 -8 7 -15 14
-15 16 0 2 7 1 15 -2 8 -4 15 -11 15 -16z m-130 -8 c0 -5 -4 -10 -9 -10 -6 0
-13 5 -16 10 -3 6 1 10 9 10 9 0 16 -4 16 -10z m275 -10 c3 -5 1 -10 -4 -10
-6 0 -11 5 -11 10 0 6 2 10 4 10 3 0 8 -4 11 -10z m-144 -57 c13 -15 12 -15
-8 -4 -24 12 -29 21 -14 21 5 0 15 -7 22 -17z m89 7 c0 -5 -2 -10 -4 -10 -3 0
-8 5 -11 10 -3 6 -1 10 4 10 6 0 11 -4 11 -10z m-40 -20 c0 -5 -2 -10 -4 -10
-3 0 -8 5 -11 10 -3 6 -1 10 4 10 6 0 11 -4 11 -10z m275 -30 c16 -16 25 -30
19 -30 -10 1 -64 46 -64 55 0 13 18 3 45 -25z m-225 -1 c0 -14 -17 -10 -23 5
-4 10 -1 13 9 9 7 -3 14 -9 14 -14z m85 -19 c3 -5 1 -10 -4 -10 -6 0 -11 5
-11 10 0 6 2 10 4 10 3 0 8 -4 11 -10z m109 -50 c-6 -5 -24 21 -24 34 0 6 6 1
14 -10 8 -10 12 -21 10 -24z m-50 -38 c-24 -6 -16 -20 41 -78 30 -31 55 -58
55 -60 0 -2 -8 0 -17 3 -16 6 -17 5 -3 -12 14 -17 14 -18 -9 -6 -15 8 -20 16
-13 20 8 5 7 14 -5 31 l-17 24 -12 -30 -12 -29 0 33 c1 17 -6 40 -15 50 -8 9
-18 34 -21 55 l-6 38 24 -18 c17 -13 20 -19 10 -21z m196 -13 c0 -6 -4 -7 -10
-4 -5 3 -10 11 -10 16 0 6 5 7 10 4 6 -3 10 -11 10 -16z m-2830 -23 c0 -3 -4
-8 -10 -11 -5 -3 -10 -1 -10 4 0 6 5 11 10 11 6 0 10 -2 10 -4z m-140 -41 c-7
-8 -18 -15 -24 -15 -6 0 -2 7 8 15 25 19 32 19 16 0z m2930 -39 c24 -27 29
-35 14 -28 -20 11 -54 53 -54 68 0 4 1 5 3 3 1 -2 18 -22 37 -43z m-2920 20
c0 -2 -8 -10 -17 -17 -16 -13 -17 -12 -4 4 13 16 21 21 21 13z m-125 -16 c-3
-5 -11 -10 -16 -10 -6 0 -7 5 -4 10 3 6 11 10 16 10 6 0 7 -4 4 -10z m-75 -25
c0 -2 -10 -9 -22 -15 -22 -11 -22 -10 -4 4 21 17 26 19 26 11z m100 -10 c-7
-9 -15 -13 -19 -10 -3 3 1 10 9 15 21 14 24 12 10 -5z m10 -19 c0 -2 -8 -10
-17 -17 -16 -13 -17 -12 -4 4 13 16 21 21 21 13z m14 -31 c-29 -22 -42 -17
-15 6 13 11 26 17 29 14 3 -3 -3 -12 -14 -20z m68 3 c-7 -7 -12 -8 -12 -2 0
14 12 26 19 19 2 -3 -1 -11 -7 -17z m-178 -23 c-4 -8 -11 -15 -16 -15 -6 0 -5
6 2 15 7 8 14 15 16 15 2 0 1 -7 -2 -15z m3121 5 c3 -5 1 -10 -4 -10 -6 0 -11
5 -11 10 0 6 2 10 4 10 3 0 8 -4 11 -10z m-3072 -15 c-3 -9 -8 -14 -10 -11 -3
3 -2 9 2 15 9 16 15 13 8 -4z m149 -27 c-7 -7 -12 -21 -12 -32 0 -34 -17 -53
-18 -20 0 30 25 80 36 70 3 -4 0 -12 -6 -18z m2802 -4 c-1 -14 -5 -28 -8 -31
-4 -4 -2 45 3 55 5 10 8 -3 5 -24z m111 16 c3 -6 -1 -7 -9 -4 -18 7 -21 14 -7
14 6 0 13 -4 16 -10z m-3003 -22 c-7 -7 -12 -8 -12 -2 0 14 12 26 19 19 2 -3
-1 -11 -7 -17z m48 -2 c0 -3 -4 -8 -10 -11 -5 -3 -10 -1 -10 4 0 6 5 11 10 11
6 0 10 -2 10 -4z m-230 -25 c0 -5 -10 -11 -22 -14 -22 -6 -22 -6 -4 8 23 17
26 18 26 6z m110 -6 c0 -8 -7 -15 -15 -15 -16 0 -20 12 -8 23 11 12 23 8 23
-8z m3310 -23 c0 -15 -2 -15 -10 -2 -13 20 -13 33 0 25 6 -3 10 -14 10 -23z
m-340 -7 c7 -9 11 -17 8 -20 -2 -2 -12 4 -21 15 -9 11 -13 20 -8 20 5 0 14 -7
21 -15z m-3131 -44 c-31 -40 -48 -54 -33 -28 16 26 58 76 62 72 2 -2 -11 -22
-29 -44z m161 28 c0 -6 -5 -7 -11 -4 -6 4 -22 -4 -36 -16 -25 -24 -25 -24 -14
-2 19 36 61 51 61 22z m3075 12 c3 -5 1 -12 -5 -16 -5 -3 -10 1 -10 9 0 18 6
21 15 7z m-2985 -21 c0 -5 -2 -10 -4 -10 -3 0 -8 5 -11 10 -3 6 -1 10 4 10 6
0 11 -4 11 -10z m2870 -42 c0 -6 -6 -5 -15 2 -8 7 -15 14 -15 16 0 2 7 1 15
-2 8 -4 15 -11 15 -16z m140 -18 c0 -5 -2 -10 -4 -10 -3 0 -8 5 -11 10 -3 6
-1 10 4 10 6 0 11 -4 11 -10z m-230 -10 c0 -5 -2 -10 -4 -10 -3 0 -8 5 -11 10
-3 6 -1 10 4 10 6 0 11 -4 11 -10z m-3030 -4 c0 -2 -8 -10 -17 -17 -16 -13
-17 -12 -4 4 13 16 21 21 21 13z m3481 -38 c8 -16 8 -19 -2 -16 -6 2 -16 14
-20 27 -11 27 6 19 22 -11z m-281 18 c0 -3 -4 -8 -10 -11 -5 -3 -10 -1 -10 4
0 6 5 11 10 11 6 0 10 -2 10 -4z m-2775 -46 c3 -5 1 -10 -4 -10 -6 0 -11 5
-11 10 0 6 2 10 4 10 3 0 8 -4 11 -10z m-101 -58 c-7 -36 -10 -37 -44 -16 -14
8 -18 13 -9 11 8 -3 24 5 35 18 24 28 26 26 18 -13z m2551 -12 c-4 -6 -1 -17
5 -26 11 -12 9 -14 -11 -10 -13 3 -26 5 -28 5 -5 1 30 41 36 41 2 0 1 -5 -2
-10z m-2532 -30 c-3 -11 -7 -20 -9 -20 -2 0 -4 9 -4 20 0 11 4 20 9 20 5 0 7
-9 4 -20z m191 5 c-6 -16 -24 -21 -24 -7 0 11 11 22 21 22 5 0 6 -7 3 -15z
m2753 -7 c-3 -8 -6 -5 -6 6 -1 11 2 17 5 13 3 -3 4 -12 1 -19z m-2982 -18 c-3
-5 -11 -10 -16 -10 -6 0 -7 5 -4 10 3 6 11 10 16 10 6 0 7 -4 4 -10z m2675
-40 c0 -5 -2 -10 -4 -10 -3 0 -8 5 -11 10 -3 6 -1 10 4 10 6 0 11 -4 11 -10z
m-2316 -15 c3 -9 0 -15 -9 -15 -8 0 -15 7 -15 15 0 8 4 15 9 15 5 0 11 -7 15
-15z m2236 -5 c0 -5 -4 -10 -10 -10 -5 0 -10 5 -10 10 0 6 5 10 10 10 6 0 10
-4 10 -10z m-2919 -23 c-10 -9 -11 -8 -5 6 3 10 9 15 12 12 3 -3 0 -11 -7 -18z
m609 9 c0 -3 -4 -8 -10 -11 -5 -3 -10 -1 -10 4 0 6 5 11 10 11 6 0 10 -2 10
-4z m2330 -13 c0 -14 60 -76 60 -62 0 9 3 10 10 3 7 -7 4 -23 -10 -50 -16 -33
-25 -38 -21 -11 0 4 -6 7 -15 7 -12 0 -15 7 -12 23 2 13 -1 28 -8 35 -8 7 -11
19 -8 27 4 10 0 15 -11 15 -9 0 -13 5 -10 10 7 12 25 13 25 3z m-2435 -23 c3
-5 1 -10 -4 -10 -6 0 -11 5 -11 10 0 6 2 10 4 10 3 0 8 -4 11 -10z m319 -26
c3 -8 -3 -25 -14 -36 -21 -23 -25 -14 -14 30 7 26 19 29 28 6z m2546 -15 c6
-11 10 -28 8 -37 -3 -13 -8 -9 -21 15 -20 37 -21 43 -7 43 5 0 14 -9 20 -21z
m180 -24 c0 -5 -5 -3 -10 5 -5 8 -10 20 -10 25 0 6 5 3 10 -5 5 -8 10 -19 10
-25z m-751 -9 c-3 -3 -11 5 -18 17 -13 21 -12 21 5 5 10 -10 16 -20 13 -22z
m-1919 14 c0 -5 -4 -10 -10 -10 -5 0 -10 5 -10 10 0 6 5 10 10 10 6 0 10 -4
10 -10z m-860 -15 c0 -8 -9 -19 -19 -24 -17 -10 -18 -9 -7 14 12 28 26 33 26
10z m1026 -5 c8 0 14 -4 14 -10 0 -5 -7 -10 -15 -10 -8 0 -15 5 -15 10 0 6 -5
10 -11 10 -6 0 -9 -7 -6 -14 4 -10 1 -13 -9 -9 -7 3 -14 9 -14 14 0 12 34 29
38 18 2 -5 10 -9 18 -9z m-1200 -6 c-3 -9 -6 -18 -6 -20 0 -3 -4 -3 -10 1 -11
7 -2 35 12 35 6 0 7 -7 4 -16z m347 -15 c-5 -19 -7 -19 -15 -5 -10 18 -2 39
12 31 4 -3 6 -15 3 -26z m2454 -6 c-3 -10 -5 -4 -5 12 0 17 2 24 5 18 2 -7 2
-21 0 -30z m313 -25 c0 -17 -16 -6 -27 19 -20 41 -15 52 7 18 11 -16 20 -33
20 -37z m-1720 -18 c0 -5 -5 -10 -11 -10 -5 0 -7 5 -4 10 3 6 8 10 11 10 2 0
4 -4 4 -10z m990 -22 c0 -6 -6 -5 -15 2 -8 7 -15 14 -15 16 0 2 7 1 15 -2 8
-4 15 -11 15 -16z m107 -3 c-7 -17 -47 -21 -47 -4 0 6 6 9 14 6 8 -3 17 1 20
10 4 9 9 13 12 10 4 -3 4 -13 1 -22z m653 15 c0 -5 -4 -10 -10 -10 -5 0 -10 5
-10 10 0 6 5 10 10 10 6 0 10 -4 10 -10z m-1440 -40 c0 -5 -4 -10 -10 -10 -5
0 -10 5 -10 10 0 6 5 10 10 10 6 0 10 -4 10 -10z m475 -8 c-3 -3 -11 0 -18 7
-9 10 -8 11 6 5 10 -3 15 -9 12 -12z m-1780 -40 c-8 -8 -25 10 -19 20 4 6 9 5
15 -3 4 -7 6 -15 4 -17z m1355 13 c0 -8 -4 -15 -10 -15 -5 0 -7 7 -4 15 4 8 8
15 10 15 2 0 4 -7 4 -15z m1650 -21 c0 -8 -4 -14 -10 -14 -5 0 -10 9 -10 21 0
11 5 17 10 14 6 -3 10 -13 10 -21z m-1833 -20 c-3 -3 -12 -4 -19 -1 -8 3 -5 6
6 6 11 1 17 -2 13 -5z m1023 -9 c-7 -9 -15 -13 -19 -10 -3 3 1 10 9 15 21 14
24 12 10 -5z m-552 -44 c3 -8 0 -11 -6 -7 -5 3 -13 -2 -16 -11 -6 -15 -8 -15
-23 -1 -8 9 -12 21 -8 28 9 15 47 9 53 -9z m-308 -51 c0 -5 -2 -10 -4 -10 -3
0 -8 5 -11 10 -3 6 -1 10 4 10 6 0 11 -4 11 -10z m-405 -20 c3 -5 -1 -10 -9
-10 -9 0 -16 5 -16 10 0 6 4 10 9 10 6 0 13 -4 16 -10z m2425 -75 c0 -8 -2
-15 -4 -15 -2 0 -6 7 -10 15 -3 8 -1 15 4 15 6 0 10 -7 10 -15z m-370 -25 c0
-5 -2 -10 -4 -10 -3 0 -8 5 -11 10 -3 6 -1 10 4 10 6 0 11 -4 11 -10z m368
-20 c-11 -18 -28 -27 -28 -16 0 16 14 36 26 36 12 0 12 -4 2 -20z m-1338 0 c0
-6 -11 -8 -26 -4 -19 5 -25 4 -20 -5 4 -6 1 -11 -8 -11 -17 0 -21 12 -9 23 10
11 63 8 63 -3z m-1176 -46 c3 -8 2 -12 -4 -9 -6 3 -10 10 -10 16 0 14 7 11 14
-7z m-259 -14 c3 -5 1 -10 -4 -10 -6 0 -11 5 -11 10 0 6 2 10 4 10 3 0 8 -4
11 -10z m2230 -990 c3 -5 -1 -10 -10 -10 -9 0 -13 5 -10 10 3 6 8 10 10 10 2
0 7 -4 10 -10z m-2785 -100 c-13 -8 -12 -10 3 -10 9 0 17 -4 17 -10 0 -14 -13
-13 -28 2 -17 17 -15 28 6 28 14 0 15 -2 2 -10z m2824 -95 c6 -16 -30 -55 -51
-55 -20 0 -15 27 9 50 26 24 34 25 42 5z m-2726 -104 c3 -8 -1 -12 -9 -9 -7 2
-15 10 -17 17 -3 8 1 12 9 9 7 -2 15 -10 17 -17z m2512 -9 c0 -5 -9 -17 -19
-26 -22 -20 -40 -4 -21 19 13 16 40 20 40 7z m110 -52 c-7 -22 -17 -40 -21
-40 -8 0 -6 11 13 63 16 42 23 22 8 -23z m-2613 -26 c-3 -3 -13 1 -22 9 -8 9
-15 21 -15 29 0 7 9 4 22 -9 12 -13 19 -25 15 -29z m193 6 c0 -5 -2 -10 -4
-10 -3 0 -8 5 -11 10 -3 6 -1 10 4 10 6 0 11 -4 11 -10z m-120 -70 c0 -5 -2
-10 -4 -10 -3 0 -8 5 -11 10 -3 6 -1 10 4 10 6 0 11 -4 11 -10z m2340 -10
c-24 -15 -37 -11 -16 5 11 8 22 12 25 9 3 -3 -1 -9 -9 -14z m-53 -127 c-9 -9
-20 -14 -24 -10 -3 4 2 14 13 21 25 19 33 10 11 -11z m69 -48 c-21 -16 -32
-13 -21 4 3 6 14 11 23 11 15 -1 15 -2 -2 -15z m-136 -55 c0 -5 -5 -10 -11
-10 -5 0 -7 5 -4 10 3 6 8 10 11 10 2 0 4 -4 4 -10z m24 -158 c3 -5 -1 -9 -9
-9 -8 0 -12 4 -9 9 3 4 7 8 9 8 2 0 6 -4 9 -8z"/>
<path d="M3645 1199 c-11 -17 1 -21 15 -4 8 9 8 15 2 15 -6 0 -14 -5 -17 -11z"/>
<path d="M4323 4423 c9 -14 47 -24 47 -12 0 5 -4 9 -9 9 -5 0 -17 3 -27 7 -11
4 -15 3 -11 -4z"/>
<path d="M4393 4419 c11 -7 23 -7 35 0 14 9 11 10 -18 10 -29 0 -32 -1 -17
-10z"/>
<path d="M2505 4343 c-32 -24 -50 -32 -53 -24 -3 9 -10 7 -25 -6 -18 -16 -20
-16 -14 -1 8 23 -13 37 -45 31 -33 -6 -33 -8 -10 -32 27 -30 102 -20 149 18
21 17 47 31 58 31 11 0 27 5 35 10 11 7 8 10 -16 10 -21 0 -47 -12 -79 -37z"/>
<path d="M4115 4363 c23 -21 84 -63 92 -63 11 1 -36 37 -72 56 -16 9 -25 12
-20 7z"/>
<path d="M2425 4350 c-3 -5 -2 -10 4 -10 5 0 13 5 16 10 3 6 2 10 -4 10 -5 0
-13 -4 -16 -10z"/>
<path d="M2690 4345 c-7 -8 -18 -15 -24 -14 -22 3 -36 -1 -36 -10 0 -9 16 -5
73 15 9 4 17 10 17 15 0 14 -16 11 -30 -6z"/>
<path d="M3024 4349 c12 -8 25 -8 40 -1 18 9 16 11 -19 11 -33 0 -37 -1 -21
-10z"/>
<path d="M2970 4340 c0 -5 7 -7 15 -4 8 4 15 8 15 10 0 2 -7 4 -15 4 -8 0 -15
-4 -15 -10z"/>
<path d="M2273 4323 c9 -2 25 -2 35 0 9 3 1 5 -18 5 -19 0 -27 -2 -17 -5z"/>
<path d="M2115 4300 c4 -6 11 -8 16 -5 14 9 11 15 -7 15 -8 0 -12 -5 -9 -10z"/>
<path d="M1995 4291 c-53 -8 -34 -18 38 -19 43 -1 57 3 57 14 0 15 -22 16 -95
5z"/>
<path d="M2925 4290 c-3 -6 1 -7 9 -4 18 7 21 14 7 14 -6 0 -13 -4 -16 -10z"/>
<path d="M2210 4280 c-13 -8 -12 -10 3 -10 9 0 17 5 17 10 0 12 -1 12 -20 0z"/>
<path d="M4260 4245 c40 -48 43 -51 32 -30 -6 11 -21 29 -34 40 -22 19 -22 19
2 -10z"/>
<path d="M1765 4234 c-39 -13 -39 -14 -6 -9 19 3 39 0 46 -5 7 -6 20 -7 29 -4
13 5 14 9 5 20 -14 17 -22 17 -74 -2z"/>
<path d="M4340 4221 c0 -5 5 -13 10 -16 6 -3 10 -2 10 4 0 5 -4 13 -10 16 -5
3 -10 2 -10 -4z"/>
<path d="M1690 4210 c-9 -6 -10 -10 -3 -10 6 0 15 5 18 10 8 12 4 12 -15 0z"/>
<path d="M2702 4175 c-26 -24 -44 -45 -40 -45 3 0 28 20 55 45 26 25 44 45 40
45 -5 0 -29 -20 -55 -45z"/>
<path d="M1365 4078 c-33 -17 -54 -33 -48 -35 10 -4 9 -8 -2 -20 -11 -10 -19
-12 -28 -5 -15 13 -90 -29 -93 -53 -2 -11 3 -15 13 -11 8 3 21 6 28 6 7 0 12
7 11 16 0 9 5 19 13 22 10 3 12 0 8 -12 -9 -22 9 -20 33 4 11 11 26 20 33 20
7 0 21 6 32 14 11 7 29 16 40 19 11 4 2 4 -20 1 -31 -4 -37 -3 -28 6 6 7 26
15 44 19 20 4 33 13 35 24 3 22 0 22 -71 -15z"/>
<path d="M2889 4044 c-26 -7 -52 -21 -59 -29 -11 -13 -8 -14 19 -9 21 4 31 3
31 -5 0 -8 -8 -10 -19 -6 -11 3 -22 1 -26 -5 -4 -7 8 -10 37 -9 65 2 80 0 73
-11 -3 -6 4 -10 17 -10 17 0 19 3 9 9 -7 5 -11 13 -7 19 3 6 0 12 -6 15 -7 3
15 4 50 3 34 -1 62 1 62 6 0 8 -21 12 -50 9 -11 -1 -11 1 3 9 9 6 22 8 29 4 7
-4 8 -3 4 4 -7 11 -40 10 -116 -4 -24 -4 -24 -4 -6 11 24 18 15 18 -45 -1z"/>
<path d="M2594 4028 l-19 -23 23 19 c21 18 27 26 19 26 -2 0 -12 -10 -23 -22z"/>
<path d="M2637 4023 c-4 -3 -7 -15 -7 -27 0 -20 0 -20 15 0 8 10 15 22 15 27
0 9 -14 9 -23 0z"/>
<path d="M2715 3995 l-30 -24 43 20 c23 12 42 23 42 25 0 12 -29 1 -55 -21z"/>
<path d="M2780 4000 c-8 -5 -10 -10 -5 -10 6 0 17 5 25 10 8 5 11 10 5 10 -5
0 -17 -5 -25 -10z"/>
<path d="M2522 3950 c-15 -24 -15 -33 -2 -25 6 3 10 2 10 -4 0 -5 -8 -12 -17
-14 -14 -4 -13 -5 3 -6 12 0 25 6 28 15 9 22 8 26 -5 18 -8 -4 -9 0 -4 15 8
26 3 27 -13 1z"/>
<path d="M2831 3961 c-9 -6 3 -8 33 -6 25 1 49 5 53 8 10 10 -70 8 -86 -2z"/>
<path d="M1290 3949 c-19 -5 -50 -11 -69 -13 -18 -2 -38 -9 -43 -14 -17 -17
89 -2 129 18 41 21 37 23 -17 9z"/>
<path d="M2589 3934 c-13 -14 -17 -23 -9 -19 13 5 46 45 37 45 -2 0 -14 -11
-28 -26z"/>
<path d="M1083 3906 c-61 -46 -133 -116 -118 -116 5 0 -2 -12 -16 -27 l-24
-26 33 19 c46 26 60 44 30 37 -18 -4 -20 -3 -12 6 6 7 28 14 48 15 21 2 43 9
49 15 9 10 5 10 -18 1 l-30 -10 25 20 c14 11 28 20 33 20 4 0 7 7 7 15 0 8 20
26 45 41 25 14 45 27 45 28 0 1 -9 2 -20 3 -11 1 -46 -18 -77 -41z"/>
<path d="M2846 3925 c25 -19 40 -19 24 0 -7 8 -20 15 -28 15 -13 0 -12 -3 4
-15z"/>
<path d="M2730 3916 c0 -2 7 -6 15 -10 8 -3 15 -1 15 4 0 6 -7 10 -15 10 -8 0
-15 -2 -15 -4z"/>
<path d="M2317 3889 c7 -7 15 -10 18 -7 3 3 -2 9 -12 12 -14 6 -15 5 -6 -5z"/>
<path d="M1127 3868 c-21 -11 -36 -22 -33 -25 5 -5 86 35 86 42 0 9 -14 4 -53
-17z"/>
<path d="M2613 3876 c5 -14 3 -15 -13 -6 -15 8 -21 6 -30 -10 -6 -11 -17 -20
-25 -20 -7 0 -16 -4 -19 -9 -3 -4 6 -6 19 -3 14 2 25 9 25 14 0 7 4 7 13 1 22
-17 47 -23 44 -10 -1 7 4 11 11 10 6 -2 12 2 12 7 0 7 7 7 20 0 15 -8 25 -7
41 4 26 18 13 26 -53 33 -44 4 -50 3 -45 -11z"/>
<path d="M2470 3870 c-19 -13 46 -13 75 0 16 7 11 9 -20 9 -22 0 -47 -4 -55
-9z"/>
<path d="M1148 3844 c-21 -13 -38 -27 -38 -30 0 -6 67 32 85 48 20 17 -11 6
-47 -18z"/>
<path d="M3780 3864 c0 -5 8 -22 19 -37 14 -21 20 -25 24 -14 3 8 -5 25 -19
38 -13 12 -24 18 -24 13z"/>
<path d="M1590 3846 c0 -2 13 -6 29 -8 17 -2 28 -1 25 4 -5 8 -54 12 -54 4z"/>
<path d="M1708 3843 c6 -2 18 -2 25 0 6 3 1 5 -13 5 -14 0 -19 -2 -12 -5z"/>
<path d="M1943 3829 c-35 -11 -63 -23 -63 -28 0 -5 -14 -11 -32 -15 -33 -6
-32 -18 3 -23 11 -2 18 1 14 7 -3 6 1 7 9 4 9 -3 13 -11 9 -18 -4 -7 -1 -6 9
2 8 7 23 10 32 6 9 -3 23 -1 31 6 8 7 15 9 15 5 0 -4 7 -2 15 5 12 10 19 10
27 2 9 -9 9 -12 -2 -12 -7 0 -11 -3 -7 -6 7 -7 68 26 83 45 9 11 12 10 17 -10
5 -17 9 -20 15 -11 5 7 16 10 25 6 15 -5 19 0 16 22 -1 7 22 24 32 24 13 0 4
-35 -11 -42 -12 -5 -11 -7 3 -7 10 -1 25 6 34 14 11 12 18 13 29 4 15 -12 38
-3 28 12 -3 5 -9 7 -13 4 -5 -2 -17 2 -27 10 -30 23 -81 19 -87 -6 -5 -20 -7
-20 -22 -5 -15 14 -18 14 -41 0 -23 -16 -24 -15 -17 1 7 20 -6 15 -39 -12 -10
-9 -25 -12 -37 -8 -24 7 -28 24 -6 26 28 3 33 4 41 12 12 11 -16 7 -83 -14z
m-8 -29 c-3 -5 -1 -10 6 -10 7 0 10 -3 6 -6 -9 -9 -28 6 -22 17 4 5 8 9 11 9
3 0 2 -4 -1 -10z"/>
<path d="M2318 3819 c-24 -20 -28 -28 -16 -29 9 0 19 4 22 9 3 4 23 7 45 5 24
-2 46 2 53 10 9 8 21 10 33 5 29 -11 55 -10 55 2 0 6 -6 9 -12 6 -7 -2 -24 0
-38 6 -14 5 -44 11 -67 12 -34 2 -48 -3 -75 -26z"/>
<path d="M1333 3833 c-13 -2 -23 -9 -23 -14 0 -11 39 -2 55 12 9 9 7 10 -32 2z"/>
<path d="M1840 3832 c0 -10 36 -9 46 1 4 4 -5 7 -19 7 -15 0 -27 -4 -27 -8z"/>
<path d="M1500 3820 c-9 -6 -10 -10 -3 -10 6 0 15 5 18 10 8 12 4 12 -15 0z"/>
<path d="M1715 3813 c-17 -9 -24 -18 -18 -20 7 -3 25 5 39 16 32 25 21 27 -21
4z"/>
<path d="M1540 3810 c-8 -5 -10 -10 -5 -10 6 0 17 5 25 10 8 5 11 10 5 10 -5
0 -17 -5 -25 -10z"/>
<path d="M1639 3803 c-13 -16 -12 -17 4 -4 9 7 17 15 17 17 0 8 -8 3 -21 -13z"/>
<path d="M1998 3813 c7 -3 16 -2 19 1 4 3 -2 6 -13 5 -11 0 -14 -3 -6 -6z"/>
<path d="M1775 3792 c-22 -9 -51 -25 -65 -34 -23 -17 -23 -17 16 -11 21 3 44
12 49 18 6 7 21 19 35 29 31 20 17 20 -35 -2z"/>
<path d="M1319 3723 c-13 -17 -13 -17 6 -3 11 8 22 16 24 17 2 2 0 3 -6 3 -6
0 -17 -8 -24 -17z"/>
<path d="M1240 3679 c0 -5 5 -7 10 -4 6 3 10 8 10 11 0 2 -4 4 -10 4 -5 0 -10
-5 -10 -11z"/>
<path d="M3840 3635 c13 -14 26 -25 28 -25 3 0 -5 11 -18 25 -13 14 -26 25
-28 25 -3 0 5 -11 18 -25z"/>
<path d="M3440 3130 c0 -5 7 -10 16 -10 8 0 12 5 9 10 -3 6 -10 10 -16 10 -5
0 -9 -4 -9 -10z"/>
<path d="M1881 3033 c-1 -18 4 -33 9 -33 12 0 12 17 0 45 -7 17 -9 15 -9 -12z"/>
<path d="M2060 2995 c-11 -13 -10 -14 4 -9 9 3 16 10 16 15 0 13 -6 11 -20 -6z"/>
<path d="M2695 2990 c-3 -5 -1 -10 4 -10 6 0 11 5 11 10 0 6 -2 10 -4 10 -3 0
-8 -4 -11 -10z"/>
<path d="M2083 2983 c-15 -5 -17 -23 -4 -23 5 0 11 7 15 15 3 8 4 15 3 14 -1
0 -8 -3 -14 -6z"/>
<path d="M3239 2978 c0 -7 -2 -21 -4 -30 -2 -10 1 -18 6 -18 5 0 9 5 9 11 0 5
5 7 10 4 16 -10 12 15 -5 31 -12 12 -15 12 -16 2z"/>
<path d="M2110 2976 c0 -2 7 -6 15 -10 8 -3 15 -1 15 4 0 6 -7 10 -15 10 -8 0
-15 -2 -15 -4z"/>
<path d="M2635 2970 c28 -12 37 -12 30 0 -3 6 -16 10 -28 9 -21 0 -21 -1 -2
-9z"/>
<path d="M3010 2970 c8 -5 20 -10 25 -10 6 0 3 5 -5 10 -8 5 -19 10 -25 10 -5
0 -3 -5 5 -10z"/>
<path d="M3055 2968 c-9 -22 4 -43 17 -30 7 7 7 16 0 29 -10 17 -11 17 -17 1z"/>
<path d="M2285 2960 c-3 -5 -1 -10 4 -10 6 0 11 5 11 10 0 6 -2 10 -4 10 -3 0
-8 -4 -11 -10z"/>
<path d="M2500 2959 c0 -5 -6 -7 -12 -3 -10 5 -10 4 -1 -6 6 -7 16 -9 22 -6
14 9 14 26 1 26 -5 0 -10 -5 -10 -11z"/>
<path d="M2687 2963 c-4 -3 -7 -11 -7 -17 0 -6 5 -5 12 2 6 6 9 14 7 17 -3 3
-9 2 -12 -2z"/>
<path d="M2738 2962 c-21 -4 -24 -22 -5 -22 7 0 21 6 31 13 19 14 10 17 -26 9z"/>
<path d="M2377 2954 c7 -3 9 -13 6 -22 -6 -15 -5 -15 11 -3 13 11 14 16 4 22
-7 5 -17 8 -23 8 -5 0 -5 -3 2 -5z"/>
<path d="M2435 2940 c3 -5 10 -10 16 -10 5 0 9 5 9 10 0 6 -7 10 -16 10 -8 0
-12 -4 -9 -10z"/>
<path d="M3177 2916 c-4 -10 -1 -13 8 -9 8 3 12 9 9 14 -7 12 -11 11 -17 -5z"/>
<path d="M3270 2914 c0 -8 5 -12 10 -9 6 4 8 11 5 16 -9 14 -15 11 -15 -7z"/>
<path d="M3230 2899 c0 -5 5 -7 10 -4 6 3 10 8 10 11 0 2 -4 4 -10 4 -5 0 -10
-5 -10 -11z"/>
<path d="M4442 2890 c0 -14 2 -19 5 -12 2 6 2 18 0 25 -3 6 -5 1 -5 -13z"/>
<path d="M565 2210 c-3 -5 -1 -10 4 -10 6 0 11 5 11 10 0 6 -2 10 -4 10 -3 0
-8 -4 -11 -10z"/>
<path d="M3693 986 c-13 -6 -23 -14 -23 -19 0 -9 36 9 45 23 3 6 5 9 3 9 -2
-1 -13 -6 -25 -13z"/>
</g>
</svg>
